<?xml version="1.0" standalone="no"?>
<!DOCTYPE svg PUBLIC "-//W3C//DTD SVG 20010904//EN"
 "http://www.w3.org/TR/2001/REC-SVG-20010904/DTD/svg10.dtd">
<svg version="1.0" xmlns="http://www.w3.org/2000/svg"
 width="137.000000pt" height="137.000000pt" viewBox="0 0 137.000000 137.000000"
 preserveAspectRatio="xMidYMid meet">
<metadata>
Created by potrace 1.11, written by Peter Selinger 2001-2013
</metadata>
<g transform="translate(0.000000,137.000000) scale(0.100000,-0.100000)"
fill="#000000" stroke="none">
<path d="M262 1121 c-13 -9 -11 -81 2 -82 6 0 27 -1 48 -3 34 -3 36 -1 40 30
2 18 1 39 -2 46 -5 13 -72 20 -88 9z"/>
<path d="M402 1116 c-12 -20 -9 -76 5 -77 79 -7 89 -2 89 41 0 22 -5 41 -11
41 -53 6 -77 4 -83 -5z"/>
<path d="M540 1096 c0 -34 26 -80 86 -150 38 -44 40 -54 21 -80 -10 -14 -26
-18 -68 -17 l-54 0 -2 -45 -2 -45 79 2 c90 2 129 21 155 77 27 56 14 96 -65
194 -30 37 -46 66 -43 77 4 16 -3 18 -51 20 l-56 1 0 -34z"/>
<path d="M790 944 l0 -185 53 3 52 3 1 65 1 65 61 3 62 3 0 44 0 44 -62 3 -63
3 1 60 c1 33 -4 63 -10 67 -6 4 -30 8 -53 8 l-43 0 0 -186z"/>
<path d="M1044 1121 c-2 -2 -4 -23 -4 -45 l0 -41 117 2 c65 0 121 2 126 2 4 1
7 20 7 44 l0 43 -121 -1 c-66 0 -123 -2 -125 -4z"/>
<path d="M5 1016 c5 -127 51 -222 160 -332 122 -123 282 -221 515 -317 101
-42 319 -113 374 -123 l39 -7 -79 114 c-43 63 -90 131 -104 151 -30 44 -34 46
-128 53 -202 14 -448 110 -575 225 -37 34 -81 82 -98 106 -38 55 -89 158 -89
178 0 9 -4 16 -9 16 -4 0 -7 -29 -6 -64z"/>
<path d="M259 988 c-1 -2 -3 -54 -4 -115 l-2 -113 48 0 c40 0 49 3 50 18 1 20
1 181 0 200 -1 8 -17 12 -46 12 -25 0 -46 -1 -46 -2z"/>
<path d="M398 983 c-2 -4 -4 -55 -3 -113 l0 -105 50 0 49 0 1 111 1 111 -47 2
c-26 1 -49 -2 -51 -6z"/>
<path d="M1047 983 c-4 -3 -7 -55 -7 -115 l0 -108 50 0 50 0 0 70 0 70 75 0
75 0 0 45 0 45 -118 0 c-65 0 -122 -3 -125 -7z"/>
<path d="M1158 730 c-15 -5 -28 -7 -30 -5 -2 2 -21 -9 -43 -24 -52 -35 -86
-97 -87 -158 -4 -205 259 -275 352 -94 7 13 14 48 17 77 7 69 -19 125 -79 172
-28 22 -101 40 -130 32z"/>
</g>
</svg>
